<svg xmlns="http://www.w3.org/2000/svg" viewBox="0 0 400 400" width="400" height="400">
  <polygon points="200,20 370,105 370,295 200,380 30,295 30,105" fill="#004494" stroke="#ffffff" stroke-width="8"/>
  
  <path d="M 170 120 C 170 100, 200 90, 215 105 C 230 95, 255 105, 250 125 C 265 130, 260 150, 240 150 L 160 150 C 140 150, 145 130, 160 125 Z" fill="none" stroke="#ffffff" stroke-width="4" stroke-linejoin="round"/>
  <path d="M 195 140 L 195 120 M 190 125 L 195 120 L 200 125" fill="none" stroke="#ffffff" stroke-width="3"/>
  <path d="M 215 125 L 215 145 M 210 140 L 215 145 L 220 140" fill="none" stroke="#ffffff" stroke-width="3"/>

  <path d="M 120 180 L 170 180 Q 190 180 190 200 L 190 230" fill="none" stroke="#ffffff" stroke-width="4"/>
  <circle cx="120" cy="180" r="5" fill="#ffffff"/>
  <path d="M 120 200 L 180 200 Q 200 200 200 220 L 200 230" fill="none" stroke="#ffffff" stroke-width="4"/>
  <circle cx="120" cy="200" r="5" fill="#ffffff"/>
  <path d="M 280 180 L 230 180 Q 210 180 210 200 L 210 230" fill="none" stroke="#ffffff" stroke-width="4"/>
  <circle cx="280" cy="180" r="5" fill="#ffffff"/>
  
  <rect x="185" y="230" width="30" height="30" fill="none" stroke="#ffffff" stroke-width="3"/>
  <path d="M 185 235 L 180 235 M 185 245 L 180 245 M 185 255 L 180 255" stroke="#ffffff" stroke-width="2"/>
  <path d="M 215 235 L 220 235 M 215 245 L 220 245 M 215 255 L 220 255" stroke="#ffffff" stroke-width="2"/>
  <path d="M 190 260 L 190 265 M 200 260 L 200 265 M 210 260 L 210 265" stroke="#ffffff" stroke-width="2"/>
</svg>
